<?xml version="1.0" encoding="UTF-8"?>
<svg id="Capa_2" data-name="Capa 2" xmlns="http://www.w3.org/2000/svg" viewBox="0 0 1856.31 647.13">
  <defs>
    <style>
      .cls-1 {
        fill: #fff;
      }

      .cls-2 {
        fill: #540375;
      }

      .cls-3 {
        fill: #10a19d;
      }

      .cls-4 {
        fill: #ffbf00;
      }

      .cls-5 {
        opacity: .3;
      }

      .cls-6 {
        fill: #ff7000;
      }
    </style>
  </defs>
  <g id="Capa_1-2" data-name="Capa 1">
    <g>
      <g>
        <path class="cls-1" d="m779.8,167.99V0h37.51l18.87,72.26L855.28,0h37.74v167.99h-26.92v-70.65c0-9.66.27-19.68.8-30.03s1.19-20.4,1.96-30.15c.77-9.74,1.61-18.6,2.53-26.58l-23.7,84.46h-23.7l-22.78-82.39c1.38,10.59,2.65,23.21,3.8,37.86,1.15,14.65,1.73,30.26,1.73,46.83v70.65h-26.92Z"/>
        <path class="cls-1" d="m960.45,170.29c-12.89,0-23.05-3.64-30.49-10.93-7.44-7.28-11.16-16.84-11.16-28.65s4.22-22.05,12.66-29.34c8.43-7.28,20.02-10.93,34.75-10.93h30.83v-8.97c0-12.73-7.44-19.1-22.32-19.1-6.75,0-12.12,1.31-16.11,3.91-3.99,2.61-6.21,6.29-6.67,11.05h-27.62c.61-11.35,5.41-20.56,14.38-27.62,8.97-7.06,21.05-10.59,36.24-10.59,16.11,0,28.61,3.76,37.51,11.28,8.9,7.52,13.35,18.1,13.35,31.76v85.84h-28.08v-23.7c-1.08,8.13-4.91,14.5-11.51,19.1-6.6,4.6-15.19,6.9-25.77,6.9Zm9.21-23.47c8.43,0,15.11-2.07,20.02-6.21,4.91-4.14,7.36-9.67,7.36-16.57v-14.96h-29.45c-6.29,0-11.28,1.77-14.96,5.29-3.68,3.53-5.52,8.05-5.52,13.58s1.96,10.24,5.87,13.69c3.91,3.45,9.47,5.18,16.69,5.18Z"/>
        <path class="cls-1" d="m1065.85,167.99V41.42h28.08v24.62c1.53-8.28,5.33-14.84,11.39-19.68,6.06-4.83,13.92-7.25,23.59-7.25,12.89,0,22.93,4.14,30.15,12.43,7.21,8.28,10.82,19.87,10.82,34.75v11.97h-28.77v-10.59c0-7.67-1.99-13.54-5.98-17.61-3.99-4.06-9.66-6.1-17.03-6.1s-13.5,2.3-17.49,6.9c-3.99,4.6-5.98,11.13-5.98,19.56v77.55h-28.76Z"/>
        <path class="cls-1" d="m1216.57,209.41v-23.93h35.67c6.75,0,11.97-1.8,15.65-5.41,3.68-3.61,5.52-8.48,5.52-14.61v-7.6l.46-19.79c-2.61,7.06-6.79,12.54-12.54,16.46-5.75,3.91-12.77,5.87-21.05,5.87-12.89,0-23.13-4.33-30.72-13-7.59-8.67-11.39-20.44-11.39-35.33v-24.62c0-14.73,3.8-26.46,11.39-35.21,7.6-8.74,17.84-13.12,30.72-13.12,8.28,0,15.3,1.96,21.05,5.87,5.75,3.91,9.93,9.47,12.54,16.69v-20.25h28.08v124.73c0,13.35-4.41,23.89-13.23,31.64-8.83,7.75-20.83,11.62-36.01,11.62h-36.13Zm33.37-73.64c7.36,0,13.08-2.19,17.14-6.56,4.06-4.37,6.1-10.47,6.1-18.29v-22.09c0-7.83-2.03-13.92-6.1-18.29-4.07-4.37-9.78-6.56-17.14-6.56s-13.04,2.11-17.03,6.33c-3.99,4.22-5.98,10.09-5.98,17.61v23.93c0,7.52,1.99,13.39,5.98,17.6,3.99,4.22,9.67,6.33,17.03,6.33Z"/>
        <path class="cls-1" d="m1374.67,170.29c-12.89,0-23.05-3.64-30.49-10.93-7.44-7.28-11.16-16.84-11.16-28.65s4.22-22.05,12.66-29.34c8.43-7.28,20.02-10.93,34.75-10.93h30.83v-8.97c0-12.73-7.44-19.1-22.32-19.1-6.75,0-12.12,1.31-16.11,3.91-3.99,2.61-6.21,6.29-6.67,11.05h-27.62c.61-11.35,5.41-20.56,14.38-27.62,8.97-7.06,21.05-10.59,36.24-10.59,16.11,0,28.61,3.76,37.51,11.28,8.9,7.52,13.35,18.1,13.35,31.76v85.84h-28.08v-23.7c-1.08,8.13-4.91,14.5-11.51,19.1-6.6,4.6-15.19,6.9-25.77,6.9Zm9.21-23.47c8.43,0,15.11-2.07,20.02-6.21,4.91-4.14,7.36-9.67,7.36-16.57v-14.96h-29.45c-6.29,0-11.28,1.77-14.96,5.29-3.68,3.53-5.52,8.05-5.52,13.58s1.96,10.24,5.87,13.69c3.91,3.45,9.47,5.18,16.69,5.18Z"/>
        <path class="cls-1" d="m1480.06,167.99V41.42h28.08v24.62c1.53-8.28,5.33-14.84,11.39-19.68,6.06-4.83,13.92-7.25,23.59-7.25,12.89,0,22.93,4.14,30.15,12.43,7.21,8.28,10.82,19.87,10.82,34.75v11.97h-28.77v-10.59c0-7.67-1.99-13.54-5.98-17.61-3.99-4.06-9.66-6.1-17.03-6.1s-13.5,2.3-17.49,6.9c-3.99,4.6-5.98,11.13-5.98,19.56v77.55h-28.76Z"/>
        <path class="cls-1" d="m1665.08,170.29c-10.74,0-20.1-2.07-28.08-6.21s-14.15-10.01-18.52-17.6c-4.37-7.6-6.56-16.53-6.56-26.81v-29.91c0-10.28,2.18-19.22,6.56-26.81,4.37-7.59,10.54-13.46,18.52-17.6s17.33-6.21,28.08-6.21,19.82,2.07,27.73,6.21c7.9,4.14,14.04,9.93,18.41,17.37,4.37,7.44,6.56,16.15,6.56,26.12v23.01h-78.24v8.74c0,8.59,2.22,15.07,6.68,19.45,4.45,4.37,10.74,6.56,18.87,6.56,5.98,0,11.08-1.03,15.3-3.11,4.22-2.07,6.71-5.1,7.48-9.09h28.54c-1.99,10.89-7.67,19.6-17.03,26.12-9.36,6.52-20.79,9.78-34.29,9.78Zm-25.54-81.46v4.37l50.63-.23v-4.37c0-8.74-2.15-15.49-6.44-20.25-4.3-4.75-10.51-7.13-18.64-7.13s-14.81,2.42-19.1,7.25c-4.3,4.83-6.44,11.62-6.44,20.37Z"/>
        <path class="cls-1" d="m1815.58,167.99c-11.81,0-21.21-3.41-28.19-10.24-6.99-6.83-10.47-16.07-10.47-27.73v-62.59h-34.98v-26h34.98V5.75h29v35.67h50.4v26h-50.4v61.9c0,3.68,1.03,6.71,3.11,9.09,2.07,2.38,4.95,3.57,8.63,3.57h37.51v26h-39.58Z"/>
        <path class="cls-1" d="m785.09,444.14v-167.99h28.77v68.12h45.1v-68.12h28.77v167.99h-28.77v-73.87h-45.1v73.87h-28.77Z"/>
        <path class="cls-1" d="m960.45,446.44c-12.89,0-23.05-3.64-30.49-10.93-7.44-7.28-11.16-16.84-11.16-28.65s4.22-22.05,12.66-29.34c8.43-7.28,20.02-10.93,34.75-10.93h30.83v-8.97c0-12.73-7.44-19.1-22.32-19.1-6.75,0-12.12,1.31-16.11,3.91-3.99,2.61-6.21,6.29-6.67,11.05h-27.62c.61-11.35,5.41-20.56,14.38-27.62,8.97-7.06,21.05-10.59,36.24-10.59,16.11,0,28.61,3.76,37.51,11.28,8.9,7.52,13.35,18.1,13.35,31.76v85.84h-28.08v-23.7c-1.08,8.13-4.91,14.5-11.51,19.1-6.6,4.6-15.19,6.9-25.77,6.9Zm9.21-23.47c8.43,0,15.11-2.07,20.02-6.21,4.91-4.14,7.36-9.67,7.36-16.57v-14.96h-29.45c-6.29,0-11.28,1.77-14.96,5.29-3.68,3.53-5.52,8.05-5.52,13.58s1.96,10.24,5.87,13.69c3.91,3.45,9.47,5.18,16.69,5.18Z"/>
        <path class="cls-1" d="m1054.34,444.14v-126.57h23.93v18.41h.69c.46-6.13,2.61-11.12,6.44-14.96,3.83-3.83,8.67-5.75,14.5-5.75s10.51,1.8,14.5,5.41c3.99,3.61,6.68,8.48,8.05,14.61.61-6.13,2.88-11.01,6.79-14.61,3.91-3.6,8.86-5.41,14.84-5.41,7.67,0,14.04,3.03,19.1,9.09,5.06,6.06,7.6,13.85,7.6,23.36v96.42h-25.32v-94.35c0-4.14-.96-7.4-2.88-9.78-1.92-2.38-4.64-3.57-8.17-3.57-6.9,0-10.36,4.45-10.36,13.35v94.35h-23.01v-94.35c0-4.14-.88-7.4-2.65-9.78-1.77-2.38-4.33-3.57-7.71-3.57-7.36,0-11.04,4.45-11.04,13.35v94.35h-25.32Z"/>
        <path class="cls-1" d="m1199.08,444.14v-26h43.26v-74.56h-38.66v-26h67.43v100.56h38.89v26h-110.92Zm55.69-147.74c-5.83,0-10.43-1.5-13.81-4.49s-5.06-7.02-5.06-12.08,1.69-9.09,5.06-12.08c3.37-2.99,7.98-4.49,13.81-4.49s10.43,1.5,13.81,4.49c3.37,2.99,5.06,7.02,5.06,12.08s-1.69,9.09-5.06,12.08c-3.38,2.99-7.98,4.49-13.81,4.49Z"/>
        <path class="cls-1" d="m1409.18,444.14c-12.58,0-22.67-3.76-30.26-11.28-7.6-7.51-11.39-17.41-11.39-29.68v-101.03h-41.65v-26h70.42v126.34c0,4.76,1.34,8.55,4.03,11.39,2.68,2.84,6.33,4.26,10.93,4.26h37.05v26h-39.12Z"/>
        <path class="cls-1" d="m1539.43,444.14c-11.82,0-21.21-3.41-28.19-10.24-6.98-6.83-10.47-16.07-10.47-27.73v-62.59h-34.98v-26h34.98v-35.67h29v35.67h50.4v26h-50.4v61.9c0,3.68,1.04,6.71,3.11,9.09,2.07,2.38,4.95,3.57,8.63,3.57h37.51v26h-39.58Z"/>
        <path class="cls-1" d="m1664.85,446.21c-16.26,0-29.15-4.56-38.66-13.69-9.51-9.13-14.27-21.44-14.27-36.93v-29.45c0-15.65,4.75-28,14.27-37.05,9.51-9.05,22.39-13.58,38.66-13.58s29.15,4.53,38.66,13.58c9.51,9.05,14.27,21.4,14.27,37.05v29.45c0,15.5-4.76,27.81-14.27,36.93-9.51,9.13-22.4,13.69-38.66,13.69Zm0-25.08c7.67,0,13.61-2.11,17.84-6.33s6.33-10.32,6.33-18.29v-31.3c0-7.98-2.11-14.07-6.33-18.29-4.22-4.22-10.16-6.33-17.84-6.33s-13.61,2.11-17.84,6.33c-4.22,4.22-6.33,10.32-6.33,18.29v31.3c0,7.98,2.11,14.08,6.33,18.29,4.22,4.22,10.16,6.33,17.84,6.33Z"/>
        <path class="cls-1" d="m1751.6,444.14v-126.57h28.08v23.7c1.53-7.98,5.29-14.31,11.28-18.99,5.98-4.68,13.58-7.02,22.78-7.02,12.43,0,22.36,4.14,29.8,12.43,7.43,8.28,11.16,19.41,11.16,33.37v83.07h-28.77v-79.62c0-7.82-2.03-13.84-6.09-18.07-4.07-4.22-9.55-6.33-16.46-6.33s-12.85,2.15-16.91,6.44c-4.07,4.3-6.1,10.43-6.1,18.41v79.16h-28.76Z"/>
      </g>
      <g class="cls-5">
        <path class="cls-1" d="m860.04,584.3c0,20.99-15.54,33.93-40.61,33.93h-21.53v27.53h-17.72v-95.4h39.25c25.08,0,40.61,12.81,40.61,33.93Zm-17.85,0c0-11.99-8.04-18.94-23.58-18.94h-20.72v37.89h20.72c15.54,0,23.58-6.95,23.58-18.94Z"/>
        <path class="cls-1" d="m967.43,645.77l-19.49-27.94c-1.22.14-2.45.14-3.68.14h-21.53v27.8h-17.72v-95.4h39.25c25.08,0,40.61,12.81,40.61,33.93,0,14.45-7.36,25.08-20.31,30.12l21.94,31.35h-19.08Zm-23.99-80.41h-20.72v38.02h20.72c15.54,0,23.58-7.09,23.58-19.08s-8.04-18.94-23.58-18.94Z"/>
        <path class="cls-1" d="m1025.08,598.06c0-28.21,21.81-49.06,51.38-49.06s51.38,20.72,51.38,49.06-21.81,49.07-51.38,49.07-51.38-20.85-51.38-49.07Zm84.91,0c0-19.49-14.31-33.53-33.53-33.53s-33.53,14.04-33.53,33.53,14.31,33.53,33.53,33.53,33.53-14.04,33.53-33.53Z"/>
        <path class="cls-1" d="m1157.27,633.36l10.09-12.13c5.18,7.09,11.45,10.9,18.94,10.9,9.81,0,14.86-5.86,14.86-17.58v-49.34h-33.94v-14.85h51.65v63.24c0,22.49-11.18,33.53-32.16,33.53-11.99,0-22.9-4.91-29.44-13.77Z"/>
        <path class="cls-1" d="m1342.49,630.91v14.86h-71.55v-95.4h69.64v14.85h-51.93v24.81h46.07v14.58h-46.07v26.3h53.83Z"/>
        <path class="cls-1" d="m1382.28,598.06c0-28.48,21.81-49.06,51.11-49.06,15.54,0,28.89,5.59,37.75,15.95l-11.45,10.77c-6.95-7.5-15.54-11.18-25.49-11.18-19.76,0-34.07,13.9-34.07,33.53s14.31,33.53,34.07,33.53c9.95,0,18.53-3.68,25.49-11.31l11.45,10.9c-8.86,10.36-22.22,15.95-37.89,15.95-29.16,0-50.97-20.58-50.97-49.07Z"/>
        <path class="cls-1" d="m1533.69,565.36h-31.62v-14.99h80.95v14.99h-31.62v80.41h-17.72v-80.41Z"/>
      </g>
      <rect class="cls-4" x="56.47" y="509.86" width="572.75" height="137.27"/>
      <rect class="cls-6" y="347.76" width="537.79" height="137.27"/>
      <rect class="cls-2" x="91.42" y="184.57" width="537.8" height="137.27" transform="translate(9.88 -13.51) rotate(2.18)"/>
      <rect class="cls-3" x="56.47" y="11.2" width="497.46" height="137.27"/>
    </g>
  </g>
</svg>