<svg width="69" height="53" viewBox="0 0 69 53" fill="none" xmlns="http://www.w3.org/2000/svg">
<path d="M36.7072 1.47424C33.3418 1.47424 30.0521 2.47219 27.2539 4.34188C24.4557 6.21157 22.2748 8.86903 20.9869 11.9782C19.699 15.0874 19.3621 18.5086 20.0186 21.8093C20.6752 25.11 22.2957 28.1419 24.6754 30.5216C27.0551 32.9012 30.0869 34.5218 33.3876 35.1783C36.6883 35.8349 40.1096 35.4979 43.2187 34.2101C46.3279 32.9222 48.9854 30.7413 50.8551 27.9431C52.7248 25.1449 53.7227 21.8551 53.7227 18.4898C53.7179 13.9784 51.9237 9.65323 48.7337 6.46324C45.5437 3.27324 41.2185 1.47901 36.7072 1.47424ZM38.6705 26.3431H38.0161V27.652C38.0161 27.9991 37.8782 28.332 37.6327 28.5775C37.3872 28.823 37.0543 28.9609 36.7072 28.9609C36.36 28.9609 36.0271 28.823 35.7817 28.5775C35.5362 28.332 35.3983 27.9991 35.3983 27.652V26.3431H32.7805C32.4334 26.3431 32.1005 26.2052 31.855 25.9597C31.6095 25.7143 31.4716 25.3813 31.4716 25.0342C31.4716 24.6871 31.6095 24.3541 31.855 24.1087C32.1005 23.8632 32.4334 23.7253 32.7805 23.7253H38.6705C39.1912 23.7253 39.6906 23.5185 40.0588 23.1503C40.427 22.7821 40.6338 22.2827 40.6338 21.762C40.6338 21.2413 40.427 20.7419 40.0588 20.3737C39.6906 20.0055 39.1912 19.7987 38.6705 19.7987H34.7438C33.5289 19.7987 32.3636 19.316 31.5045 18.4569C30.6454 17.5978 30.1627 16.4325 30.1627 15.2175C30.1627 14.0026 30.6454 12.8373 31.5045 11.9782C32.3636 11.1191 33.5289 10.6364 34.7438 10.6364H35.3983V9.32756C35.3983 8.98042 35.5362 8.6475 35.7817 8.40204C36.0271 8.15658 36.36 8.01867 36.7072 8.01867C37.0543 8.01867 37.3872 8.15658 37.6327 8.40204C37.8782 8.6475 38.0161 8.98042 38.0161 9.32756V10.6364H40.6338C40.981 10.6364 41.3139 10.7743 41.5594 11.0198C41.8048 11.2653 41.9427 11.5982 41.9427 11.9453C41.9427 12.2925 41.8048 12.6254 41.5594 12.8709C41.3139 13.1163 40.981 13.2542 40.6338 13.2542H34.7438C34.2231 13.2542 33.7238 13.4611 33.3556 13.8293C32.9874 14.1975 32.7805 14.6968 32.7805 15.2175C32.7805 15.7383 32.9874 16.2376 33.3556 16.6058C33.7238 16.974 34.2231 17.1809 34.7438 17.1809H38.6705C39.8855 17.1809 41.0507 17.6635 41.9098 18.5227C42.769 19.3818 43.2516 20.547 43.2516 21.762C43.2516 22.977 42.769 24.1422 41.9098 25.0013C41.0507 25.8604 39.8855 26.3431 38.6705 26.3431Z" fill="#FFA415" fill-opacity="0.2"/>
<path d="M12.9055 51.4742H3.38109C2.74959 51.4742 2.14395 51.2234 1.6974 50.7768C1.25086 50.3303 1 49.7247 1 49.0931V37.1877C1 36.5562 1.25086 35.9505 1.6974 35.504C2.14395 35.0574 2.74959 34.8066 3.38109 34.8066H12.9055M12.9055 51.4742H34.3353L53.3841 46.7121L64.9383 41.7832C65.6881 41.4075 66.3299 40.8471 66.8035 40.155C67.2771 39.4628 67.5668 38.6616 67.6454 37.8266C67.724 36.9917 67.5888 36.1504 67.2527 35.3821C66.9166 34.6137 66.3906 33.9435 65.7241 33.4345C65.1181 32.9762 64.4158 32.6617 63.6704 32.5148C62.9238 32.369 62.1535 32.3985 61.4203 32.6011L41.4786 37.1877H40.288C41.8668 37.1877 43.3809 36.5605 44.4973 35.4442C45.6136 34.3278 46.2408 32.8137 46.2408 31.2349C46.2408 29.6562 45.6136 28.1421 44.4973 27.0257C43.3809 25.9094 41.8668 25.2822 40.288 25.2822H25.4062C24.467 25.2783 23.5364 25.4604 22.668 25.8179C21.7995 26.1755 21.0105 26.7016 20.3464 27.3657L12.9055 34.8066M12.9055 51.4742V34.8066M45.0502 8.4955V11.3052M45.0502 25.3596V27.2764M40.8327 25.3715H47.1575C47.6275 25.3852 48.0955 25.3044 48.5338 25.134C48.972 24.9636 49.3716 24.707 49.7089 24.3793C50.0462 24.0517 50.3143 23.6598 50.4974 23.2267C50.6805 22.7936 50.7749 22.3281 50.7749 21.8579C50.7749 21.3877 50.6805 20.9222 50.4974 20.4891C50.3143 20.056 50.0462 19.6641 49.7089 19.3365C49.3716 19.0088 48.972 18.7522 48.5338 18.5818C48.0955 18.4114 47.6275 18.3306 47.1575 18.3443H42.943C42.473 18.358 42.005 18.2772 41.5667 18.1068C41.1285 17.9364 40.7289 17.6798 40.3916 17.3521C40.0543 17.0245 39.7862 16.6326 39.6031 16.1995C39.42 15.7664 39.3256 15.3009 39.3256 14.8307C39.3256 14.3605 39.42 13.895 39.6031 13.4619C39.7862 13.0288 40.0543 12.6369 40.3916 12.3093C40.7289 11.9816 41.1285 11.725 41.5667 11.5546C42.005 11.3842 42.473 11.3034 42.943 11.3171H49.2648M29.5612 25.0233C28.1234 21.6907 27.7989 17.9832 28.6359 14.4514C29.473 10.9197 31.4269 7.75223 34.2075 5.41944C36.9881 3.08665 40.447 1.71304 44.0705 1.50262C47.6939 1.2922 51.2886 2.25622 54.3205 4.25147C57.3525 6.24671 59.6599 9.16674 60.9001 12.5778C62.1404 15.9889 62.2472 19.7091 61.2047 23.1857C60.1623 26.6623 58.0262 29.71 55.1138 31.8759C52.2013 34.0419 48.6679 35.2105 45.0383 35.2084" stroke="#FFA415" stroke-width="1.5" stroke-linecap="round" stroke-linejoin="round"/>
<path d="M12.9055 51.4743H3.38109C2.74959 51.4743 2.14395 51.2234 1.6974 50.7768C1.25086 50.3303 1 49.7247 1 49.0932V37.1877C1 36.5562 1.25086 35.9505 1.6974 35.504C2.14395 35.0575 2.74959 34.8066 3.38109 34.8066H12.9055M12.9055 51.4743H34.3353L53.3841 46.7121L64.9383 41.7832C65.6881 41.4075 66.3299 40.8472 66.8035 40.155C67.2771 39.4629 67.5668 38.6616 67.6454 37.8266C67.7239 36.9917 67.5888 36.1505 67.2527 35.3821C66.9166 34.6138 66.3906 33.9435 65.7241 33.4345C65.1181 32.9762 64.4158 32.6617 63.6704 32.5148C62.9238 32.369 62.1535 32.3986 61.4203 32.6011L41.4786 37.1877H40.288C41.8668 37.1877 43.3809 36.5605 44.4973 35.4442C45.6136 34.3278 46.2408 32.8137 46.2408 31.235C46.2408 29.6562 45.6136 28.1421 44.4973 27.0257C43.3809 25.9094 41.8668 25.2822 40.288 25.2822H25.4062C24.467 25.2783 23.5364 25.4604 22.668 25.818C21.7995 26.1756 21.0105 26.7016 20.3464 27.3657L12.9055 34.8066M12.9055 51.4743V34.8066V51.4743Z" fill="#F6F3EE"/>
<path d="M12.9055 51.4743H3.38109C2.74959 51.4743 2.14395 51.2234 1.6974 50.7768C1.25086 50.3303 1 49.7247 1 49.0932V37.1877C1 36.5562 1.25086 35.9505 1.6974 35.504C2.14395 35.0575 2.74959 34.8066 3.38109 34.8066H12.9055M12.9055 51.4743H34.3353L53.3841 46.7121L64.9383 41.7832C65.6881 41.4075 66.3299 40.8472 66.8035 40.155C67.2771 39.4629 67.5668 38.6616 67.6454 37.8266C67.7239 36.9917 67.5888 36.1505 67.2527 35.3821C66.9166 34.6138 66.3906 33.9435 65.7241 33.4345C65.1181 32.9762 64.4158 32.6617 63.6704 32.5148C62.9238 32.369 62.1535 32.3986 61.4203 32.6011L41.4786 37.1877H40.288C41.8668 37.1877 43.3809 36.5605 44.4973 35.4442C45.6136 34.3278 46.2408 32.8137 46.2408 31.235C46.2408 29.6562 45.6136 28.1421 44.4973 27.0257C43.3809 25.9094 41.8668 25.2822 40.288 25.2822H25.4062C24.467 25.2783 23.5364 25.4604 22.668 25.818C21.7995 26.1756 21.0105 26.7016 20.3464 27.3657L12.9055 34.8066M12.9055 51.4743V34.8066" stroke="#FFA415" stroke-width="1.5" stroke-linecap="round" stroke-linejoin="round"/>
</svg>
