<svg width="69" height="58" viewBox="0 0 69 58" fill="none" xmlns="http://www.w3.org/2000/svg">
<path d="M41.0478 36.7892C42.4526 36.0179 43.6141 34.8696 44.4011 33.4735C45.1882 32.0774 45.5695 30.4892 45.5022 28.888C45.4422 27.6925 45.2798 26.5045 45.0168 25.3367C43.8372 19.93 40.3535 14.4617 37.0664 11.2914H36.1571C41.8035 7.777 40.759 4.23189 40.0402 2.85562C39.9015 2.59269 39.6905 2.37486 39.4322 2.22775C39.1739 2.08064 38.8789 2.01037 38.582 2.02521C38.2851 2.04006 37.9986 2.13942 37.7562 2.31156C37.5139 2.48371 37.3257 2.72147 37.2139 2.99692C36.9154 3.64663 36.4068 4.17689 35.7701 4.50222C34.9243 3.13053 33.5963 2.12465 32.0468 1.68212C31.2778 1.49815 30.4723 1.5365 29.7243 1.79271C28.4419 2.23845 27.334 3.07956 26.5601 4.19502C26.0002 3.70664 25.5464 3.10859 25.2268 2.43783C25.1163 2.21607 24.9533 2.02462 24.752 1.88009C24.5507 1.73555 24.3172 1.64231 24.0718 1.6084C23.8192 1.57105 23.5614 1.59572 23.3206 1.68028C23.0797 1.76485 22.8631 1.90675 22.6894 2.09376C22.262 2.54441 21.9387 3.08335 21.7424 3.67253C21.546 4.26171 21.4812 4.88678 21.5527 5.50371C21.7862 7.96133 23.783 10.2899 25.1285 11.2914H24.6432C21.3561 14.4617 17.8847 19.93 16.6989 25.3367C15.9678 28.6975 16.0415 31.4808 16.9139 33.7172L16.9815 33.8032C16.985 33.8256 16.985 33.8484 16.9815 33.8708C18.7287 35.796 20.8545 37.3398 23.2258 38.4055C25.5972 39.4712 28.163 40.0358 30.7627 40.064C33.7425 40.0825 37.2385 38.8966 41.0478 36.7892ZM31.7334 29.0784V29.232C31.7342 29.3482 31.7119 29.4633 31.6676 29.5707C31.6234 29.678 31.5581 29.7755 31.4757 29.8574C31.3933 29.9392 31.2954 30.0037 31.1877 30.0472C31.0801 30.0907 30.9648 30.1123 30.8487 30.1106C30.6151 30.1106 30.391 30.0183 30.2252 29.8537C30.0595 29.6891 29.9655 29.4656 29.9639 29.232V29.0723C29.3999 28.8884 28.9084 28.5309 28.5597 28.0509C28.211 27.5709 28.0229 26.9929 28.0224 26.3996C28.0224 26.1661 28.1148 25.9419 28.2794 25.7762C28.444 25.6105 28.6674 25.5165 28.901 25.5149C29.1352 25.5165 29.3592 25.6103 29.5248 25.7758C29.6904 25.9414 29.7841 26.1655 29.7857 26.3996C29.7857 26.6074 29.8474 26.8106 29.9628 26.9833C30.0783 27.1561 30.2423 27.2908 30.4343 27.3703C30.6263 27.4498 30.8375 27.4706 31.0413 27.4301C31.2451 27.3895 31.4323 27.2895 31.5793 27.1426C31.7262 26.9956 31.8263 26.8084 31.8668 26.6046C31.9074 26.4008 31.8866 26.1896 31.807 25.9976C31.7275 25.8056 31.5928 25.6415 31.4201 25.5261C31.2473 25.4106 31.0442 25.349 30.8364 25.349C30.1547 25.361 29.4917 25.1261 28.9696 24.6878C28.4474 24.2494 28.1013 23.6371 27.9951 22.9636C27.8888 22.2902 28.0296 21.6011 28.3914 21.0233C28.7532 20.4454 29.3117 20.0178 29.9639 19.8193V19.6719C29.9639 19.4373 30.0571 19.2122 30.2231 19.0463C30.389 18.8804 30.614 18.7872 30.8487 18.7872C31.0833 18.7872 31.3084 18.8804 31.4743 19.0463C31.6402 19.2122 31.7334 19.4373 31.7334 19.6719V19.8316C32.2958 20.0155 32.7858 20.3723 33.1333 20.8512C33.4809 21.3301 33.6683 21.9065 33.6688 22.4982C33.6688 22.7328 33.5756 22.9578 33.4097 23.1238C33.2437 23.2897 33.0187 23.3829 32.784 23.3829C32.5494 23.3829 32.3244 23.2897 32.1584 23.1238C31.9925 22.9578 31.8993 22.7328 31.8993 22.4982C31.8981 22.2907 31.8354 22.0881 31.7192 21.9161C31.6031 21.7442 31.4386 21.6105 31.2465 21.5319C31.0544 21.4533 30.8433 21.4334 30.6399 21.4746C30.4366 21.5158 30.2499 21.6164 30.1036 21.7636C29.9573 21.9108 29.8578 22.098 29.8178 22.3016C29.7777 22.5052 29.7989 22.7161 29.8786 22.9078C29.9583 23.0994 30.093 23.2631 30.2656 23.3783C30.4382 23.4935 30.6411 23.5549 30.8487 23.5549C31.5378 23.528 32.213 23.7545 32.7464 24.1917C33.2799 24.6288 33.6346 25.2463 33.7436 25.9274C33.8526 26.6084 33.7082 27.3058 33.3378 27.8875C32.9674 28.4693 32.3966 28.8952 31.7334 29.0846V29.0784Z" fill="#FFA415" fill-opacity="0.2"/>
<path d="M13.1925 56.3509H3.71252C3.08212 56.3482 2.47828 56.0966 2.03252 55.6508C1.58675 55.2051 1.33515 54.6013 1.33252 53.9709V42.0909C1.33515 41.4604 1.58675 40.8566 2.03252 40.4109C2.47828 39.9651 3.08212 39.7135 3.71252 39.7108H13.2325M13.2325 56.3808H34.6625L53.6625 51.6209L65.2225 46.6908C65.9692 46.3118 66.6088 45.7513 67.0825 45.0608C67.5628 44.3717 67.8526 43.5679 67.9225 42.7309C68.0012 41.8963 67.8663 41.0555 67.5304 40.2875C67.1945 39.5195 66.6687 38.8496 66.0025 38.3409C65.3978 37.8826 64.6968 37.568 63.9525 37.4209C63.2054 37.2794 62.4359 37.3101 61.7025 37.5108L41.7725 42.0909H40.5825C41.4286 42.2008 42.2884 42.129 43.1046 41.8803C43.9207 41.6316 44.6744 41.2116 45.3154 40.6485C45.9564 40.0854 46.47 39.3921 46.8217 38.6148C47.1735 37.8375 47.3555 36.994 47.3555 36.1408C47.3555 35.2876 47.1735 34.4442 46.8217 33.6669C46.47 32.8896 45.9564 32.1963 45.3154 31.6332C44.6744 31.0701 43.9207 30.6502 43.1046 30.4015C42.2884 30.1527 41.4286 30.0809 40.5825 30.1909H25.7125C24.7731 30.1835 23.8417 30.3636 22.9729 30.7208C22.104 31.078 21.3151 31.6049 20.6525 32.2708L13.2025 39.7108M13.2025 56.3808V39.6809M45.3525 13.3708V16.1808M45.3525 30.2408V32.1508M41.1325 30.2509H47.4625C47.9305 30.2614 48.396 30.1799 48.8325 30.0109C49.2705 29.8392 49.6712 29.5846 50.0125 29.2609C50.3509 28.9326 50.6193 28.5392 50.8015 28.1044C50.9837 27.6695 51.0759 27.2023 51.0725 26.7309C51.0738 26.2641 50.9821 25.8017 50.8025 25.3708C50.6185 24.9357 50.35 24.5414 50.0125 24.2108C49.6712 23.8871 49.2705 23.6325 48.8325 23.4608C48.396 23.2918 47.9305 23.2103 47.4625 23.2209H43.2425C42.7745 23.2322 42.3088 23.1507 41.8725 22.9809C41.4326 22.813 41.0313 22.5579 40.6925 22.2309C40.3535 21.9052 40.0845 21.5137 39.9023 21.0803C39.72 20.647 39.6282 20.1809 39.6325 19.7108C39.6312 19.2408 39.723 18.7752 39.9025 18.3409C40.1804 17.6895 40.6471 17.1365 41.2426 16.7532C41.838 16.37 42.5346 16.1741 43.2425 16.1909H49.5625M56.5625 38.4608C57.2725 37.6108 58.9325 34.8608 58.9325 34.8608C60.4325 32.3308 60.7225 28.8608 59.7725 24.6708C58.6225 18.3708 54.3425 13.0308 50.7025 9.62085H37.2325C32.9763 13.7337 29.9381 18.9416 28.4525 24.6708C28.0215 26.4673 27.8431 28.3151 27.9225 30.1609M38.4925 9.62086C38.2916 9.62402 38.0929 9.57946 37.9125 9.49086C36.4425 8.71086 34.1525 6.81087 33.9125 4.75087C33.8572 4.22128 33.9438 3.6865 34.1635 3.20146C34.3832 2.71642 34.728 2.29858 35.1625 1.99086C35.6007 1.67122 36.1446 1.53166 36.6825 1.60087C36.9298 1.61511 37.1712 1.6823 37.3903 1.79789C37.6094 1.91348 37.8011 2.07476 37.9525 2.27085C38.3329 2.84587 38.8347 3.33058 39.4225 3.69087C40.3786 2.7319 41.5841 2.05985 42.9025 1.75087C43.7368 1.54204 44.6056 1.51137 45.4525 1.66087C47.029 1.95184 48.4661 2.75296 49.5425 3.94087C50.1923 3.72012 50.7511 3.29132 51.1325 2.72087C51.3017 2.47302 51.5305 2.27168 51.7979 2.13539C52.0652 1.99909 52.3626 1.93221 52.6625 1.94087C52.96 1.92075 53.258 1.9709 53.5325 2.08729C53.807 2.20368 54.0502 2.38304 54.2425 2.61085C55.0325 3.73085 56.2425 6.61085 49.7825 9.52085C49.6255 9.59118 49.4546 9.62536 49.2825 9.62086H38.4925Z" stroke="#FAA31C" stroke-width="1.5" stroke-linecap="round" stroke-linejoin="round"/>
<path d="M13.1828 56.3808H3.65844C3.02693 56.3808 2.42129 56.1299 1.97475 55.6834C1.52821 55.2369 1.27734 54.6312 1.27734 53.9997V42.0943C1.27734 41.4627 1.52821 40.8571 1.97475 40.4106C2.42129 39.964 3.02693 39.7132 3.65844 39.7132H13.1828M13.1828 56.3808H34.6127L53.6614 51.6186L65.2157 46.6898C65.9654 46.314 66.6073 45.7537 67.0809 45.0616C67.5544 44.3694 67.8441 43.5682 67.9227 42.7332C68.0013 41.8982 67.8662 41.057 67.5301 40.2887C67.194 39.5203 66.6679 38.8501 66.0014 38.341C65.3954 37.8828 64.6932 37.5683 63.9477 37.4214C63.2011 37.2756 62.4309 37.3051 61.6976 37.5077L41.7559 42.0943H40.5654C42.1442 42.0943 43.6583 41.4671 44.7746 40.3507C45.891 39.2344 46.5181 37.7203 46.5181 36.1415C46.5181 34.5628 45.891 33.0486 44.7746 31.9323C43.6583 30.8159 42.1442 30.1888 40.5654 30.1888H25.6836C24.7444 30.1849 23.8137 30.3669 22.9453 30.7245C22.0769 31.0821 21.2878 31.6081 20.6237 32.2722L13.1828 39.7132M13.1828 56.3808V39.7132V56.3808Z" fill="#F6F3EE"/>
<path d="M13.1828 56.3808H3.65844C3.02693 56.3808 2.42129 56.1299 1.97475 55.6834C1.52821 55.2369 1.27734 54.6312 1.27734 53.9997V42.0943C1.27734 41.4627 1.52821 40.8571 1.97475 40.4106C2.42129 39.964 3.02693 39.7132 3.65844 39.7132H13.1828M13.1828 56.3808H34.6127L53.6614 51.6186L65.2157 46.6898C65.9654 46.314 66.6073 45.7537 67.0809 45.0616C67.5544 44.3694 67.8441 43.5682 67.9227 42.7332C68.0013 41.8982 67.8662 41.057 67.5301 40.2887C67.194 39.5203 66.6679 38.8501 66.0014 38.341C65.3954 37.8828 64.6932 37.5683 63.9477 37.4214C63.2011 37.2756 62.4309 37.3051 61.6976 37.5077L41.7559 42.0943H40.5654C42.1442 42.0943 43.6583 41.4671 44.7746 40.3507C45.891 39.2344 46.5181 37.7203 46.5181 36.1415C46.5181 34.5628 45.891 33.0486 44.7746 31.9323C43.6583 30.8159 42.1442 30.1888 40.5654 30.1888H25.6836C24.7444 30.1849 23.8137 30.3669 22.9453 30.7245C22.0769 31.0821 21.2878 31.6081 20.6237 32.2722L13.1828 39.7132M13.1828 56.3808V39.7132" stroke="#FFA415" stroke-width="1.5" stroke-linecap="round" stroke-linejoin="round"/>
</svg>
