<svg width="72" height="55" viewBox="0 0 72 55" fill="none" xmlns="http://www.w3.org/2000/svg">
<path d="M26.1488 20.4432C22.7835 20.4432 19.4937 21.4411 16.6955 23.3108C13.8973 25.1805 11.7164 27.838 10.4285 30.9471C9.14067 34.0563 8.80371 37.4776 9.46026 40.7783C10.1168 44.079 11.7374 47.1108 14.117 49.4905C16.4967 51.8702 19.5286 53.4907 22.8293 54.1473C26.13 54.8038 29.5512 54.4669 32.6604 53.179C35.7696 51.8911 38.427 49.7102 40.2967 46.912C42.1664 44.1138 43.1644 40.8241 43.1644 37.4587C43.1596 32.9474 41.3654 28.6222 38.1754 25.4322C34.9854 22.2422 30.6602 20.4479 26.1488 20.4432ZM28.1122 45.312H27.4577V46.6209C27.4577 46.968 27.3198 47.301 27.0744 47.5464C26.8289 47.7919 26.496 47.9298 26.1488 47.9298C25.8017 47.9298 25.4688 47.7919 25.2233 47.5464C24.9778 47.301 24.8399 46.968 24.8399 46.6209V45.312H22.2222C21.875 45.312 21.5421 45.1741 21.2966 44.9287C21.0512 44.6832 20.9133 44.3503 20.9133 44.0031C20.9133 43.656 21.0512 43.3231 21.2966 43.0776C21.5421 42.8321 21.875 42.6942 22.2222 42.6942H28.1122C28.6329 42.6942 29.1322 42.4874 29.5004 42.1192C29.8686 41.751 30.0755 41.2516 30.0755 40.7309C30.0755 40.2102 29.8686 39.7108 29.5004 39.3426C29.1322 38.9744 28.6329 38.7676 28.1122 38.7676H24.1855C22.9705 38.7676 21.8053 38.2849 20.9462 37.4258C20.087 36.5667 19.6044 35.4015 19.6044 34.1865C19.6044 32.9715 20.087 31.8063 20.9462 30.9472C21.8053 30.088 22.9705 29.6054 24.1855 29.6054H24.8399V28.2965C24.8399 27.9494 24.9778 27.6164 25.2233 27.371C25.4688 27.1255 25.8017 26.9876 26.1488 26.9876C26.496 26.9876 26.8289 27.1255 27.0744 27.371C27.3198 27.6164 27.4577 27.9494 27.4577 28.2965V29.6054H30.0755C30.4226 29.6054 30.7555 29.7433 31.001 29.9887C31.2465 30.2342 31.3844 30.5671 31.3844 30.9143C31.3844 31.2614 31.2465 31.5943 31.001 31.8398C30.7555 32.0853 30.4226 32.2232 30.0755 32.2232H24.1855C23.6648 32.2232 23.1654 32.43 22.7972 32.7982C22.429 33.1664 22.2222 33.6658 22.2222 34.1865C22.2222 34.7072 22.429 35.2066 22.7972 35.5748C23.1654 35.943 23.6648 36.1498 24.1855 36.1498H28.1122C29.3271 36.1498 30.4924 36.6325 31.3515 37.4916C32.2106 38.3507 32.6933 39.5159 32.6933 40.7309C32.6933 41.9459 32.2106 43.1111 31.3515 43.9702C30.4924 44.8294 29.3271 45.312 28.1122 45.312Z" fill="#FFA415" fill-opacity="0.2"/>
<path d="M34.7434 35.87L38.6928 34.8084L40.1952 34.6285C46.5466 33.8818 48.2019 33.6838 53.8426 28.2681L57.639 27.0356L58.2148 28.8348C58.3732 29.3138 58.7148 29.7105 59.165 29.9381C59.6152 30.1657 60.1372 30.2057 60.6168 30.0493L68.9474 27.3504C69.4261 27.1937 69.8239 26.8546 70.0546 26.4068C70.2852 25.9589 70.3303 25.4382 70.1799 24.9574L62.9828 2.79051C62.9063 2.55288 62.7837 2.33269 62.6219 2.14253C62.4601 1.95237 62.2624 1.79599 62.0402 1.68234C61.8179 1.56869 61.5753 1.5 61.3265 1.48021C61.0776 1.46043 60.8273 1.48993 60.5898 1.56703L52.2502 4.26592C51.777 4.41896 51.3826 4.75168 51.1521 5.19248C50.9217 5.63328 50.8734 6.14693 51.0178 6.62295L51.7105 8.78206L47.7881 9.86162L35.904 10.6713C32.8487 10.9471 29.8973 11.9196 27.2765 13.5141C25.0946 14.7673 23.2631 16.5493 21.9507 18.696C21.9507 18.696 35.0133 20.8911 34.7434 35.843M35.769 35.5641L31.9456 36.5806L35.769 35.5641Z" fill="#F6F3EE"/>
<path d="M34.4598 35.2274C34.0598 35.3349 33.8226 35.7464 33.9302 36.1464C34.0377 36.5464 34.4491 36.7835 34.8491 36.676L34.4598 35.2274ZM38.6132 34.8876L38.524 34.143L38.4706 34.1494L38.4186 34.1633L38.6132 34.8876ZM40.1192 34.7073L40.0316 33.9624L40.03 33.9626L40.1192 34.7073ZM53.799 28.3318L53.5674 27.6184L53.4037 27.6716L53.2796 27.7908L53.799 28.3318ZM57.6045 27.0963L58.3188 26.8678L58.0893 26.1504L57.3729 26.383L57.6045 27.0963ZM58.1816 28.8999L57.4673 29.1285L57.4695 29.1353L58.1816 28.8999ZM60.5893 30.1173L60.3582 29.4038L60.3569 29.4042L60.5893 30.1173ZM68.9397 27.412L68.713 26.697L68.7086 26.6985L68.9397 27.412ZM70.1752 25.0132L70.8888 24.7827L70.8885 24.7816L70.1752 25.0132ZM62.961 2.79367L62.2471 3.0236L62.2477 3.02527L62.961 2.79367ZM60.5623 1.56725L60.7932 2.28081L60.7939 2.28059L60.5623 1.56725ZM52.2029 4.27255L51.972 3.55899L51.9697 3.55971L52.2029 4.27255ZM50.9855 6.67126L51.6997 6.44214L51.6985 6.43861L50.9855 6.67126ZM51.6799 8.8355L51.8793 9.5585L52.6328 9.35064L52.394 8.60638L51.6799 8.8355ZM47.7572 9.91764L47.8081 10.6659L47.8836 10.6608L47.9566 10.6406L47.7572 9.91764ZM35.8358 10.7292L35.7848 9.98096L35.7767 9.98151L35.7686 9.98224L35.8358 10.7292ZM27.1968 13.5788L27.5691 14.2299L27.5782 14.2247L27.5873 14.2192L27.1968 13.5788ZM21.2093 18.382C20.9934 18.7355 21.1049 19.1971 21.4583 19.413C21.8118 19.629 22.2734 19.5175 22.4894 19.164L21.2093 18.382ZM35.2197 27.2867C35.6136 27.1588 35.8293 26.7357 35.7015 26.3418C35.5736 25.9478 35.1505 25.7321 34.7566 25.86L35.2197 27.2867ZM30.9781 27.0864C30.5842 27.2143 30.3685 27.6373 30.4963 28.0313C30.6242 28.4253 31.0473 28.641 31.4412 28.5131L30.9781 27.0864ZM35.9108 36.4061C36.3112 36.2999 36.5497 35.8893 36.4435 35.4889C36.3373 35.0885 35.9266 34.8501 35.5262 34.9563L35.9108 36.4061ZM31.6847 35.9753C31.2844 36.0815 31.0459 36.4921 31.1521 36.8925C31.2583 37.2929 31.6689 37.5313 32.0693 37.4251L31.6847 35.9753ZM52.3842 8.58582C52.2562 8.19187 51.8331 7.97623 51.4392 8.10417C51.0452 8.23212 50.8296 8.65521 50.9575 9.04917L52.3842 8.58582ZM56.8912 27.319C57.0191 27.713 57.4422 27.9286 57.8362 27.8007C58.2301 27.6727 58.4458 27.2496 58.3178 26.8557L56.8912 27.319ZM18.884 25.392C18.884 24.9778 18.5483 24.642 18.134 24.642C17.7198 24.642 17.384 24.9778 17.384 25.392H18.884ZM17.384 28.1424C17.384 28.5566 17.7198 28.8924 18.134 28.8924C18.5483 28.8924 18.884 28.5566 18.884 28.1424H17.384ZM18.884 41.8854C18.884 41.4712 18.5483 41.1354 18.134 41.1354C17.7198 41.1354 17.384 41.4712 17.384 41.8854H18.884ZM17.384 44.6358C17.384 45.05 17.7198 45.3858 18.134 45.3858C18.5483 45.3858 18.884 45.05 18.884 44.6358H17.384ZM35.3491 35.9951C35.373 35.5816 35.0572 35.2269 34.6437 35.203C34.2302 35.179 33.8756 35.4948 33.8516 35.9084L35.3491 35.9951ZM32.0527 27.6455C32.2464 28.0116 32.7002 28.1514 33.0664 27.9577C33.4325 27.764 33.5723 27.3102 33.3786 26.944L32.0527 27.6455ZM14.013 41.1444C13.5988 41.1444 13.263 41.4802 13.263 41.8944C13.263 42.3086 13.5988 42.6444 14.013 42.6444V41.1444ZM20.1901 41.8944L20.2284 41.1454C20.2157 41.1447 20.2029 41.1444 20.1901 41.1444V41.8944ZM20.1901 35.0139V35.7639C20.2029 35.7639 20.2157 35.7636 20.2284 35.7629L20.1901 35.0139ZM16.069 35.0139V34.2639V35.0139ZM13.6396 34.0076L13.1092 34.5379L13.6396 34.0076ZM22.2551 28.8924C22.6693 28.8924 23.0051 28.5566 23.0051 28.1424C23.0051 27.7282 22.6693 27.3924 22.2551 27.3924V28.8924ZM29.2258 28.44L29.4209 29.1642L29.4396 29.1591L29.458 29.1531L29.2258 28.44ZM26.25 31.8938L25.5049 31.8079L25.5045 31.8111L26.25 31.8938ZM26.4213 33.6973L25.7048 33.9189L25.7055 33.9211L26.4213 33.6973ZM27.3231 35.3115L27.8998 34.832L27.8944 34.8255L27.8889 34.8192L27.3231 35.3115ZM31.886 36.6641L31.6937 35.9392L31.6787 35.9432L31.6638 35.9478L31.886 36.6641ZM34.8491 36.676L38.8079 35.6119L38.4186 34.1633L34.4598 35.2274L34.8491 36.676ZM38.7024 35.6323L40.2084 35.4519L40.03 33.9626L38.524 34.143L38.7024 35.6323ZM40.2067 35.4521C43.3596 35.0815 45.4844 34.8371 47.5217 33.964C49.5702 33.086 51.4797 31.5984 54.3185 28.8728L53.2796 27.7908C50.4643 30.4938 48.717 31.8197 46.9308 32.5852C45.1333 33.3556 43.2453 33.5846 40.0316 33.9624L40.2067 35.4521ZM54.0306 29.0451L57.8361 27.8097L57.3729 26.383L53.5674 27.6184L54.0306 29.0451ZM56.8902 27.3249L57.4673 29.1284L58.8959 28.6713L58.3188 26.8678L56.8902 27.3249ZM57.4695 29.1353C57.6906 29.8038 58.1674 30.3574 58.7957 30.6751L59.4725 29.3364C59.1983 29.1978 58.9902 28.9561 58.8937 28.6644L57.4695 29.1353ZM58.7957 30.6751C59.424 30.9927 60.1525 31.0486 60.8218 30.8303L60.3569 29.4042C60.0647 29.4995 59.7467 29.4751 59.4725 29.3364L58.7957 30.6751ZM60.8205 30.8308L69.1709 28.1254L68.7086 26.6985L60.3582 29.4038L60.8205 30.8308ZM69.1664 28.1269C69.4996 28.0212 69.8087 27.8507 70.0758 27.6252L69.1082 26.4791C68.9921 26.577 68.8578 26.6511 68.713 26.697L69.1664 28.1269ZM70.0758 27.6252C70.3429 27.3997 70.5628 27.1237 70.7229 26.8129L69.3894 26.126C69.3198 26.2611 69.2243 26.381 69.1082 26.4791L70.0758 27.6252ZM70.7229 26.8129C70.883 26.5021 70.98 26.1627 71.0085 25.8143L69.5135 25.6921C69.5011 25.8435 69.4589 25.991 69.3894 26.126L70.7229 26.8129ZM71.0085 25.8143C71.037 25.4659 70.9963 25.1153 70.8888 24.7827L69.4615 25.2438C69.5082 25.3884 69.5259 25.5407 69.5135 25.6921L71.0085 25.8143ZM70.8885 24.7816L63.6744 2.56206L62.2477 3.02527L69.4618 25.2449L70.8885 24.7816ZM63.6749 2.56374C63.5679 2.23164 63.3965 1.9239 63.1704 1.65816L62.0279 2.63007C62.1261 2.74556 62.2006 2.87929 62.2471 3.0236L63.6749 2.56374ZM63.1704 1.65816C62.9444 1.39238 62.6681 1.17388 62.3575 1.01508L61.6746 2.35064C61.8097 2.41968 61.9297 2.51463 62.0279 2.63007L63.1704 1.65816ZM62.3575 1.01508C62.0469 0.856274 61.708 0.760244 61.3601 0.732588L61.2412 2.22787C61.3923 2.23988 61.5396 2.2816 61.6746 2.35064L62.3575 1.01508ZM61.3601 0.732588C61.0123 0.704936 60.6625 0.746165 60.3307 0.853905L60.7939 2.28059C60.9381 2.23377 61.0901 2.21585 61.2412 2.22787L61.3601 0.732588ZM60.3314 0.853683L51.972 3.55899L52.4338 4.98612L60.7932 2.28081L60.3314 0.853683ZM51.9697 3.55971C51.3013 3.77833 50.7471 4.25343 50.4289 4.8805L51.7665 5.55935C51.9048 5.28682 52.1456 5.08038 52.436 4.9854L51.9697 3.55971ZM50.4289 4.8805C50.1106 5.50759 50.0544 6.23538 50.2725 6.90392L51.6985 6.43861C51.6037 6.14809 51.6282 5.83185 51.7665 5.55935L50.4289 4.8805ZM50.2714 6.90038L50.9657 9.06462L52.394 8.60638L51.6997 6.44214L50.2714 6.90038ZM51.4804 8.11251L47.5577 9.19464L47.9566 10.6406L51.8793 9.5585L51.4804 8.11251ZM47.7062 9.16937L35.7848 9.98096L35.8867 11.4775L47.8081 10.6659L47.7062 9.16937ZM35.7686 9.98224C32.5941 10.2678 29.5278 11.2793 26.8064 12.9384L27.5873 14.2192C30.1123 12.6797 32.9575 11.7412 35.903 11.4762L35.7686 9.98224ZM26.8246 12.9277C24.5231 14.2435 22.5915 16.1197 21.2093 18.382L22.4894 19.164C23.7397 17.1175 25.4871 15.4202 27.5691 14.2299L26.8246 12.9277ZM34.7566 25.86L30.9781 27.0864L31.4412 28.5131L35.2197 27.2867L34.7566 25.86ZM35.5262 34.9563L31.6847 35.9753L32.0693 37.4251L35.9108 36.4061L35.5262 34.9563ZM50.9575 9.04917L56.8912 27.319L58.3178 26.8557L52.3842 8.58582L50.9575 9.04917ZM17.384 25.392V28.1424H18.884V25.392H17.384ZM17.384 41.8854V44.6358H18.884V41.8854H17.384ZM33.8516 35.9084C33.6318 39.703 32.045 43.2895 29.3848 46.0045L30.4562 47.0543C33.3701 44.0804 35.1083 40.1517 35.3491 35.9951L33.8516 35.9084ZM29.3848 46.0045C26.7246 48.7194 23.1712 50.379 19.3818 50.6761L19.4991 52.1715C23.6499 51.8461 27.5423 50.0282 30.4562 47.0543L29.3848 46.0045ZM19.3818 50.6761C15.5925 50.9732 11.8238 49.8878 8.77296 47.6206L7.87826 48.8246C11.2201 51.308 15.3483 52.497 19.4991 52.1715L19.3818 50.6761ZM8.77296 47.6206C5.72216 45.3535 3.59576 42.058 2.7872 38.3441L1.32153 38.6632C2.20722 42.7314 4.53644 46.3412 7.87826 48.8246L8.77296 47.6206ZM2.7872 38.3441C1.97864 34.6301 2.54263 30.7489 4.37483 27.4187L3.06061 26.6957C1.05363 30.3436 0.435842 34.5949 1.32153 38.6632L2.7872 38.3441ZM4.37483 27.4187C6.20704 24.0885 9.18345 21.5346 12.7534 20.2295L12.2383 18.8207C8.32791 20.2503 5.06758 23.0478 3.06061 26.6957L4.37483 27.4187ZM12.7534 20.2295C16.3233 18.9245 20.245 18.9566 23.7931 20.32L24.3311 18.9198C20.4446 17.4264 16.1488 17.3912 12.2383 18.8207L12.7534 20.2295ZM23.7931 20.32C27.3411 21.6833 30.2753 24.2857 32.0527 27.6455L33.3786 26.944C31.4317 23.2637 28.2176 20.4132 24.3311 18.9198L23.7931 20.32ZM14.013 42.6444H20.1901V41.1444H14.013V42.6444ZM20.1517 42.6434C20.7199 42.6725 21.288 42.5857 21.8217 42.3883L21.3012 40.9815C20.9585 41.1083 20.5935 41.1641 20.2284 41.1454L20.1517 42.6434ZM21.8217 42.3883C22.3552 42.1909 22.8431 41.8871 23.2556 41.4952L22.2224 40.4077C21.9574 40.6595 21.644 40.8547 21.3012 40.9815L21.8217 42.3883ZM23.2556 41.4952C23.668 41.1033 23.9965 40.6316 24.2209 40.1089L22.8425 39.5172C22.6983 39.853 22.4874 40.156 22.2224 40.4077L23.2556 41.4952ZM24.2209 40.1089C24.4453 39.5861 24.561 39.0231 24.561 38.4541H23.061C23.061 38.8196 22.9867 39.1813 22.8425 39.5172L24.2209 40.1089ZM24.561 38.4541C24.561 37.8852 24.4453 37.3222 24.2209 36.7994L22.8425 37.3911C22.9867 37.727 23.061 38.0887 23.061 38.4541H24.561ZM24.2209 36.7994C23.9965 36.2766 23.668 35.805 23.2556 35.4131L22.2224 36.5005C22.4874 36.7523 22.6983 37.0553 22.8425 37.3911L24.2209 36.7994ZM23.2556 35.4131C22.8431 35.0212 22.3552 34.7173 21.8217 34.5199L21.3012 35.9268C21.644 36.0536 21.9574 36.2488 22.2224 36.5005L23.2556 35.4131ZM21.8217 34.5199C21.288 34.3225 20.7199 34.2358 20.1517 34.2649L20.2284 35.7629C20.5935 35.7442 20.9585 35.8 21.3012 35.9268L21.8217 34.5199ZM20.1901 34.2639H16.069V35.7639H20.1901V34.2639ZM16.069 34.2639C15.3567 34.2639 14.6736 33.9809 14.1699 33.4773L13.1092 34.5379C13.8942 35.3229 14.9589 35.7639 16.069 35.7639V34.2639ZM14.1699 33.4773C13.6662 32.9736 13.3833 32.2905 13.3833 31.5781H11.8833C11.8833 32.6883 12.3242 33.7529 13.1092 34.5379L14.1699 33.4773ZM13.3833 31.5781C13.3833 30.8658 13.6662 30.1827 14.1699 29.679L13.1092 28.6184C12.3242 29.4034 11.8833 30.468 11.8833 31.5781H13.3833ZM14.1699 29.679C14.6736 29.1754 15.3567 28.8924 16.069 28.8924V27.3924C14.9589 27.3924 13.8942 27.8334 13.1092 28.6184L14.1699 29.679ZM16.069 28.8924H22.2551V27.3924H16.069V28.8924ZM33.286 26.3291L28.9936 27.7269L29.458 29.1531L33.7504 27.7554L33.286 26.3291ZM29.0307 27.7158C28.1008 27.9663 27.2675 28.4903 26.6389 29.2199L27.7752 30.199C28.2078 29.6971 28.7811 29.3365 29.4209 29.1642L29.0307 27.7158ZM26.6389 29.2199C26.0102 29.9495 25.6151 30.8511 25.5049 31.8079L26.995 31.9796C27.0709 31.3214 27.3427 30.701 27.7752 30.199L26.6389 29.2199ZM25.5045 31.8111C25.4259 32.52 25.4941 33.2375 25.7048 33.9189L27.1378 33.4757C26.9879 32.991 26.9395 32.4807 26.9954 31.9764L25.5045 31.8111ZM25.7055 33.9211C25.9222 34.6145 26.2803 35.2556 26.7572 35.8037L27.8889 34.8192C27.548 34.4274 27.2921 33.9692 27.1371 33.4735L25.7055 33.9211ZM26.7463 35.791C27.3827 36.5564 28.2318 37.116 29.1862 37.3989L29.6126 35.9608C28.9426 35.7622 28.3465 35.3693 27.8998 34.832L26.7463 35.791ZM29.1862 37.3989C30.1406 37.6818 31.1575 37.6754 32.1082 37.3805L31.6638 35.9478C30.9964 36.1549 30.2825 36.1594 29.6126 35.9608L29.1862 37.3989ZM32.0783 37.3891L35.478 36.4873L35.0934 35.0374L31.6937 35.9392L32.0783 37.3891ZM62.8963 22.9572C62.8963 23.0809 62.7961 23.1811 62.6724 23.1811V24.6811C63.6245 24.6811 64.3963 23.9093 64.3963 22.9572H62.8963ZM62.6724 23.1811C62.5488 23.1811 62.4485 23.0809 62.4485 22.9572H60.9485C60.9485 23.9093 61.7203 24.6811 62.6724 24.6811V23.1811ZM62.4485 22.9572C62.4485 22.8336 62.5488 22.7333 62.6724 22.7333V21.2333C61.7203 21.2333 60.9485 22.0051 60.9485 22.9572H62.4485ZM62.6724 22.7333C62.7961 22.7333 62.8963 22.8336 62.8963 22.9572H64.3963C64.3963 22.0051 63.6245 21.2333 62.6724 21.2333V22.7333Z" fill="#FFA415"/>
</svg>
